<?xml version="1.0" encoding="utf-8"?>
<!-- Generator: Adobe Illustrator 28.3.0, SVG Export Plug-In . SVG Version: 6.00 Build 0)  -->
<svg version="1.2" baseProfile="tiny" xmlns="http://www.w3.org/2000/svg" xmlns:xlink="http://www.w3.org/1999/xlink" x="0px"
	 y="0px" viewBox="0 0 150 150" overflow="visible" xml:space="preserve">
<g id="Layer_1">
	<rect fill="#FF385C" width="150" height="150"/>
	<g>
		<path fill-rule="evenodd" fill="#FFFFFF" d="M117,102.1c-0.8,5.4-4.4,10.1-9.6,12.1c-2.5,1-5.3,1.4-8,1c-2.7-0.3-5.3-1.2-8-2.7
			c-3.8-2.1-7.6-5.4-11.9-10.1c6.9-8.4,11.2-16.2,12.7-23.1c0.7-3.2,0.9-6.2,0.5-8.9c-0.4-2.6-1.3-5-2.8-7.1
			c-3.2-4.7-8.7-7.4-14.8-7.4c-6.1,0-11.6,2.8-14.8,7.4c-1.4,2.1-2.4,4.5-2.8,7.1c-0.4,2.7-0.3,5.7,0.5,8.9
			c1.6,6.9,5.9,14.7,12.7,23.1c-4.3,4.8-8.1,8-11.9,10.1c-2.7,1.5-5.4,2.4-8,2.7c-2.8,0.3-5.5,0-8-1c-5.1-2.1-8.8-6.7-9.6-12.1
			c-0.4-2.7-0.1-5.2,0.9-8.1c0.4-1,0.8-2.1,1.4-3.3c0.8-1.7,1.6-3.5,2.4-5.2l0.1-0.2c7.2-15.6,15-31.3,23-46.9l0.3-0.6
			c0.8-1.6,1.7-3.2,2.5-4.8c0.9-1.6,1.8-3.2,3-4.6c2.2-2.6,5.1-3.9,8.4-3.9c3.3,0,6.2,1.4,8.4,3.9c1.2,1.4,2.1,3,3,4.6
			c0.8,1.6,1.7,3.2,2.5,4.8l0.3,0.7c8.1,15.5,15.8,31.3,23,46.9l0.1,0.1c0.8,1.7,1.6,3.5,2.4,5.3c0.5,1.2,1,2.3,1.4,3.3
			C117.1,96.9,117.4,99.5,117,102.1z M75,97.3c-5.7-7.2-9.3-13.8-10.6-19.4c-0.5-2.3-0.7-4.5-0.4-6.4c0.3-1.6,0.8-3.1,1.7-4.4
			c2-2.8,5.4-4.5,9.3-4.5c3.8,0,7.3,1.7,9.3,4.5c0.9,1.3,1.4,2.7,1.7,4.4c0.3,1.9,0.2,4.1-0.4,6.4C84.3,83.5,80.7,90.1,75,97.3z
			 M122.4,91.8c-0.5-1.3-1-2.6-1.5-3.8c-0.8-1.8-1.6-3.6-2.5-5.4l-0.1-0.1c-7.3-15.6-15.1-31.5-23.2-47.1l-0.3-0.7
			c-0.8-1.6-1.7-3.2-2.6-4.9c-1-1.9-2.2-3.9-3.8-5.8c-3.5-4-8.2-6.2-13.5-6.2c-5.2,0-10,2.2-13.5,6.2c-1.6,1.9-2.7,3.9-3.8,5.8
			c-0.9,1.6-1.7,3.3-2.6,4.9l-0.3,0.6C46.8,51.1,39,66.9,31.7,82.6l-0.1,0.2c-0.8,1.7-1.6,3.5-2.4,5.3c-0.5,1.2-1.1,2.4-1.5,3.8
			c-1.4,3.8-1.8,7.5-1.2,11.2c1.1,7.8,6.4,14.4,13.7,17.4c2.7,1.1,5.6,1.7,8.6,1.7c0.9,0,1.8-0.1,2.8-0.2c3.5-0.4,7.1-1.6,10.5-3.5
			c4.3-2.4,8.5-5.9,13-10.8c4.6,5,8.8,8.5,13,10.8c3.5,1.9,7,3.1,10.5,3.5c0.9,0.1,1.8,0.2,2.8,0.2c3,0,5.9-0.6,8.6-1.7
			c7.3-2.9,12.6-9.6,13.7-17.4C124.1,99.4,123.7,95.7,122.4,91.8z"/>
	</g>
</g>
<g id="Dimensions">
</g>
</svg>
