<svg width="24" height="24" viewBox="0 0 24 24" fill="none" xmlns="http://www.w3.org/2000/svg">
<path fill-rule="evenodd" clip-rule="evenodd" d="M14.1687 21.0541C14.4191 20.8036 14.7332 20.6285 15.0703 20.5198C19.0911 19.224 22 15.4517 22 11C22 5.47715 17.5228 1 12 1C6.47715 1 2 5.47715 2 11C2 15.5802 5.0792 19.4411 9.2804 20.6257C9.64836 20.7295 9.99225 20.9117 10.2626 21.182L11.4446 22.364C11.8351 22.7546 12.4683 22.7546 12.8588 22.364L14.1687 21.0541Z" fill="#222222"/>
<path d="M12.3766 6.71662L12.4347 6.76662L16.9054 11.0879L16.4704 11.5366L15.7504 10.8404V15.0622C15.7504 15.1354 15.7247 15.2062 15.6779 15.2624C15.6311 15.3186 15.566 15.3566 15.4941 15.3697L15.4379 15.3747H13.2504V11.9372C13.2504 11.8641 13.2247 11.7933 13.1779 11.7371C13.1311 11.6809 13.066 11.6429 12.9941 11.6297L12.9379 11.6247H11.0629C10.9897 11.6247 10.9189 11.6504 10.8627 11.6972C10.8065 11.744 10.7685 11.809 10.7554 11.881L10.7504 11.9372V15.3747H8.56285C8.48971 15.3748 8.41888 15.3491 8.36269 15.3023C8.3065 15.2555 8.26852 15.1904 8.25535 15.1185L8.25035 15.0622V10.8404L7.52973 11.5372L7.09473 11.0885L11.5654 6.76662C11.6724 6.66309 11.8128 6.60117 11.9614 6.59201C12.11 6.58284 12.2571 6.62703 12.376 6.71662H12.3766Z" fill="white"/>
</svg>
